<svg width="83" height="88" viewBox="0 0 83 88" fill="none" xmlns="http://www.w3.org/2000/svg">
<path d="M50.1978 83.3406C49.9446 82.3253 49.657 81.1907 49.3269 79.9057C47.9962 74.7224 46.5852 69.553 46.5713 69.5013L44.4094 70.3821C45.5924 74.7151 46.8171 79.3602 47.8113 83.3406H50.1978Z" fill="#FF6821"/>
<path d="M49.3269 79.9056C50.1977 83.9616 53.3404 81.8315 53.6062 83.3406H45.6646C45.6646 83.3406 45.1768 82.4976 46.3744 82.3644C47.5726 82.2312 45.8992 75.9279 45.8992 75.9279" fill="#FF6821"/>
<path d="M43.3212 83.3406C43.068 82.3253 42.7804 81.1907 42.4504 79.9057C41.1196 74.7224 39.7086 69.553 39.6947 69.5013L37.5328 70.3821C38.7158 74.7151 39.9399 79.3602 40.9347 83.3406H43.3212Z" fill="#FF922E"/>
<path d="M42.4503 79.9056C43.3212 83.9616 46.4639 81.8315 46.7296 83.3406H38.7881C38.7881 83.3406 38.3003 82.4976 39.4979 82.3644C40.6961 82.2312 39.0227 75.9279 39.0227 75.9279" fill="#FF922E"/>
<path d="M25.8057 64.6792L9.12326 85.0484L11.8279 85.6177C13.728 86.0174 15.6731 85.1744 16.6798 83.5142L26.9065 66.6469L25.8057 64.6792Z" fill="#68940B"/>
<path d="M21.26 65.0464L0 87.3674L3.45154 87.9089C6.18335 88.3377 8.92973 87.2322 10.6038 85.0313L24.5869 66.6462L21.26 65.0464Z" fill="#466102"/>
<path d="M19.9478 66.8013L49.3283 27.5248L53.6752 18.6236C55.385 15.1224 58.6444 12.6318 62.4717 11.9015L57.9876 6.33976L63.8634 9.43275L59.0698 0L68.9486 9.06162C74.9172 14.5365 76.5615 23.2899 72.9867 30.5575L73.5871 35.7799C74.678 45.2604 71.5638 54.7435 65.0656 61.7327C56.3321 71.125 42.907 74.5315 30.7524 70.4391L19.9478 66.8013Z" fill="#FFB724"/>
<path d="M73.7899 16.3478C71.5466 15.6234 69.2521 15.0746 66.916 15.2138C63.7282 15.4034 60.4106 17.2067 59.4509 20.2526C58.7444 22.494 59.4443 25.0064 60.8274 26.9065C62.2106 28.8059 64.2014 30.1745 66.2599 31.3091C59.667 42.2151 52.4471 53.4147 45.8542 64.3207C44.4074 66.7139 42.9222 69.4119 42.7367 72.1032C51.0971 71.699 59.1567 68.0891 65.067 61.7321C71.5651 54.7428 74.6793 45.2604 73.5884 35.7792L72.9873 30.5569C75.2221 26.0138 75.4169 20.8888 73.7899 16.3478Z" fill="#FFE132"/>
<path d="M49.3283 27.5248L16.5459 68.0386L30.15 65.1584C42.8242 62.4749 52.8481 52.7817 55.9556 40.205C56.8232 36.6938 55.6475 32.993 52.9123 30.6264L49.3283 27.5248Z" fill="#68940B"/>
<path d="M54.5877 44.4829C55.1318 43.0998 55.5925 41.6729 55.9556 40.205C56.8232 36.6938 55.6475 32.993 52.9123 30.6264L49.3283 27.5248L35.6063 44.4829H54.5877Z" fill="#77A023"/>
<path d="M30.8372 50.3767L16.5459 68.0387L30.15 65.1584C39.1248 63.2583 46.7701 57.8418 51.5723 50.3767H30.8372Z" fill="#598F00"/>
<path d="M68.0387 19.7927C68.0387 20.9883 67.0691 21.9572 65.8735 21.9572C64.678 21.9572 63.7084 20.9883 63.7084 19.7927C63.7084 18.5971 64.678 17.6276 65.8735 17.6276C67.0691 17.6282 68.0387 18.5971 68.0387 19.7927Z" fill="#4F4F4F"/>
<path d="M72.0588 23.6584C72.0588 23.6584 74.106 21.1844 74.8609 20.8749C75.6158 20.5654 82.4194 24.5862 82.4194 24.5862C82.4194 24.5862 75.5177 26.2338 74.4845 26.1834C73.4506 26.1331 72.0588 23.6584 72.0588 23.6584Z" fill="#4F4F4F"/>
</svg>
